<svg width="148" height="35" viewBox="0 0 148 35" fill="none" xmlns="http://www.w3.org/2000/svg">
<path d="M142.321 27.3072C142.723 26.6848 142.954 26.0022 143.014 25.2594C143.074 24.5165 143.104 23.7837 143.104 23.0609C142.522 23.8038 141.809 24.3258 140.966 24.6269C140.123 24.9281 139.209 25.0787 138.225 25.0787C137.081 25.0787 136.087 24.908 135.244 24.5667C134.421 24.2254 133.768 23.7034 133.287 23.0007C132.805 22.3582 132.473 21.6054 132.293 20.7421C132.112 19.8587 132.022 18.905 132.022 17.8811V8.96692H136.268V17.3691C136.268 17.9112 136.308 18.4432 136.388 18.9652C136.489 19.4672 136.69 19.8888 136.991 20.2301C137.473 20.9529 138.346 21.3142 139.611 21.3142C140.213 21.3142 140.775 21.1938 141.297 20.9529C141.819 20.6919 142.231 20.2903 142.532 19.7482C142.793 19.2865 142.954 18.8046 143.014 18.3027C143.074 17.7807 143.104 17.2185 143.104 16.6162V8.96692H147.381V22.0069C147.381 22.7297 147.37 23.4725 147.35 24.2354C147.35 24.9783 147.29 25.7111 147.17 26.4339C147.069 27.1566 146.879 27.8593 146.598 28.542C146.316 29.2246 145.925 29.857 145.423 30.4392C144.72 31.2423 143.797 31.8848 142.652 32.3666C141.528 32.8485 140.173 33.0793 138.587 33.0593C137.422 33.0793 136.268 32.9187 135.124 32.5774C133.979 32.2562 132.925 31.7844 131.961 31.162L133.317 27.5481C133.839 27.9296 134.531 28.2809 135.395 28.6022C136.278 28.9234 137.312 29.084 138.496 29.084C139.46 29.084 140.243 28.9234 140.845 28.6022C141.468 28.301 141.96 27.8694 142.321 27.3072Z" fill="#877E7E"/>
<path d="M122.734 21.3142C123.538 21.3142 124.17 21.1235 124.632 20.742C125.114 20.3606 125.405 19.9289 125.505 19.4471H129.962C129.822 20.471 129.531 21.3343 129.089 22.037C128.647 22.7397 128.095 23.3219 127.432 23.7837C126.79 24.2455 126.057 24.5767 125.234 24.7775C124.411 24.9783 123.558 25.0786 122.674 25.0786C121.349 25.0786 120.195 24.898 119.211 24.5366C118.247 24.1551 117.444 23.613 116.802 22.9103C116.159 22.1876 115.667 21.3243 115.326 20.3204C115.005 19.2965 114.844 18.1521 114.844 16.8873C114.844 15.6626 115.025 14.5382 115.386 13.5143C115.748 12.4904 116.26 11.617 116.922 10.8943C117.605 10.1715 118.438 9.61939 119.422 9.23793C120.406 8.83639 121.53 8.63562 122.795 8.63562C123.718 8.63562 124.582 8.74604 125.385 8.96689C126.208 9.18774 126.931 9.52905 127.553 9.99082C128.195 10.4526 128.717 11.0449 129.119 11.7676C129.541 12.4703 129.822 13.3136 129.962 14.2973H125.505C125.405 13.8155 125.104 13.3838 124.602 13.0024C124.12 12.6209 123.487 12.4302 122.704 12.4302C122.042 12.4302 121.47 12.5506 120.988 12.7916C120.506 13.0325 120.124 13.3637 119.843 13.7854C119.562 14.207 119.362 14.6888 119.241 15.2309C119.121 15.773 119.06 16.3452 119.06 16.9475C119.06 17.5899 119.131 18.1822 119.271 18.7243C119.412 19.2463 119.623 19.7081 119.904 20.1096C120.185 20.4911 120.556 20.7922 121.018 21.0131C121.5 21.2138 122.072 21.3142 122.734 21.3142Z" fill="#877E7E"/>
<path d="M101.916 10.9846C103.2 9.4387 104.787 8.6557 106.674 8.63562C107.698 8.61554 108.601 8.7862 109.384 9.14758C110.167 9.48889 110.8 9.9607 111.281 10.563C111.864 11.2657 112.265 12.0889 112.486 13.0325C112.707 13.956 112.817 14.99 112.817 16.1344V24.8377H108.541V16.4656C108.541 15.9035 108.481 15.3714 108.36 14.8695C108.26 14.3475 108.079 13.9058 107.818 13.5444C107.557 13.163 107.206 12.8819 106.764 12.7012C106.343 12.5205 105.861 12.4302 105.319 12.4302C104.636 12.4502 104.054 12.6008 103.572 12.8819C103.11 13.163 102.759 13.5244 102.518 13.9661C102.277 14.3877 102.106 14.8695 102.006 15.4116C101.926 15.9336 101.885 16.4656 101.885 17.0077V24.8377H97.6392V8.96689H101.705L101.916 10.9846Z" fill="#877E7E"/>
<path d="M88.0877 21.6154C88.69 21.6154 89.2019 21.525 89.6236 21.3443C90.0652 21.1436 90.4266 20.8223 90.7077 20.3806H95.1648C94.9439 21.2038 94.6026 21.9165 94.1409 22.5188C93.6992 23.1211 93.1571 23.613 92.5146 23.9945C91.8923 24.376 91.1996 24.657 90.4367 24.8377C89.6737 24.9983 88.8707 25.0786 88.0274 25.0786C85.4576 25.0786 83.5101 24.3559 82.185 22.9103C80.88 21.4648 80.2275 19.437 80.2275 16.827C80.2275 15.6425 80.3982 14.5483 80.7395 13.5444C81.1009 12.5406 81.6028 11.6773 82.2453 10.9545C82.8877 10.2117 83.6808 9.63947 84.6244 9.23793C85.5881 8.83639 86.6823 8.63562 87.907 8.63562C89.3324 8.63562 90.5672 8.88658 91.6112 9.38851C92.6552 9.89043 93.4783 10.5831 94.0806 11.4665C94.703 12.3298 95.1146 13.3437 95.3154 14.5081C95.5362 15.6726 95.5362 16.9174 95.3154 18.2424H84.4738C84.5541 19.1861 84.8854 19.9891 85.4676 20.6517C86.0499 21.2941 86.9232 21.6154 88.0877 21.6154ZM91.3703 15.3212C91.3703 14.8193 91.2799 14.3776 91.0992 13.9962C90.9185 13.5946 90.6776 13.2734 90.3764 13.0325C90.0753 12.7715 89.7139 12.5807 89.2923 12.4603C88.8907 12.3398 88.4691 12.2796 88.0274 12.2796C86.9634 12.2997 86.1302 12.5908 85.5279 13.1529C84.9456 13.695 84.6043 14.4178 84.5039 15.3212H91.3703Z" fill="#877E7E"/>
<path d="M73.8239 23.2116C73.2216 23.8942 72.4988 24.376 71.6556 24.6571C70.8123 24.9382 69.8988 25.0787 68.9151 25.0787C67.9313 25.0787 66.9676 24.9281 66.024 24.627C65.1004 24.3058 64.2974 23.7938 63.6147 23.0911C62.8518 22.288 62.3198 21.3645 62.0186 20.3205C61.7175 19.2765 61.5669 18.2024 61.5669 17.0981C61.5669 14.4881 62.2897 12.4001 63.7352 10.8341C64.3576 10.1515 65.1607 9.61947 66.1444 9.23801C67.1483 8.85654 68.2224 8.67585 69.3668 8.69593C70.1096 8.65577 70.9127 8.78627 71.776 9.08743C72.6393 9.38858 73.3822 9.89051 74.0046 10.5932L74.4563 8.96697H78.1304V23.844C78.1304 24.4865 78.0902 25.1189 78.0099 25.7413C77.9497 26.3837 77.8393 26.9961 77.6787 27.5783C77.518 28.1806 77.2771 28.7528 76.9559 29.2949C76.5945 29.9574 76.1528 30.5196 75.6308 30.9814C75.1289 31.4431 74.5667 31.8246 73.9443 32.1257C73.322 32.447 72.6594 32.6779 71.9567 32.8184C71.254 32.9589 70.5413 33.0292 69.8185 33.0292C68.895 33.0292 68.0116 32.9188 67.1684 32.6979C66.3251 32.4972 65.5522 32.1559 64.8495 31.674C64.1669 31.2122 63.5947 30.62 63.1329 29.8972C62.6912 29.1744 62.4001 28.3111 62.2595 27.3073H66.7769C66.8572 27.7891 67.1784 28.2208 67.7406 28.6022C68.3027 28.9837 68.9853 29.1744 69.7884 29.1744C70.6517 29.1744 71.3544 29.0038 71.8965 28.6625C72.4586 28.3212 72.8803 27.8694 73.1613 27.3073C73.4424 26.7451 73.6231 26.1026 73.7034 25.3799C73.7837 24.6571 73.8239 23.9343 73.8239 23.2116ZM69.8788 21.3143C70.5413 21.3143 71.1235 21.1938 71.6255 20.9529C72.1475 20.712 72.5691 20.3908 72.8903 19.9892C73.2115 19.5676 73.4525 19.0858 73.6131 18.5437C73.7737 17.9815 73.854 17.3892 73.854 16.7669C73.854 15.5221 73.5026 14.4982 72.8 13.6951C72.1173 12.8719 71.1336 12.4503 69.8486 12.4302C69.1861 12.4302 68.5938 12.5507 68.0718 12.7916C67.5699 13.0326 67.1483 13.3538 66.807 13.7553C66.4857 14.1569 66.2448 14.6287 66.0842 15.1707C65.9236 15.7128 65.8433 16.2951 65.8433 16.9174C65.8433 17.58 65.9236 18.1823 66.0842 18.7244C66.2649 19.2464 66.5259 19.7081 66.8672 20.1097C67.2085 20.4911 67.6301 20.7923 68.1321 21.0131C68.634 21.2139 69.2162 21.3143 69.8788 21.3143Z" fill="#877E7E"/>
<path d="M55.5062 22.8802C54.9039 23.6833 54.1711 24.2555 53.3078 24.5968C52.4445 24.9381 51.4406 25.0987 50.2963 25.0786C48.8306 25.0385 47.6059 24.6269 46.6222 23.8439C46.1002 23.4022 45.6886 22.8802 45.3874 22.2779C45.1064 21.6555 44.9658 20.9227 44.9658 20.0795C44.9859 19.2162 45.1766 18.4533 45.538 17.7907C45.9195 17.1081 46.4917 16.5459 47.2546 16.1042C47.8971 15.7629 48.6198 15.522 49.4229 15.3815C50.2461 15.2409 51.1395 15.1707 52.1032 15.1707H55.3556C55.4159 14.1869 55.185 13.4541 54.663 12.9722C54.1611 12.4703 53.4483 12.2093 52.5248 12.1892C52.2236 12.1892 51.9124 12.2093 51.5912 12.2495C51.27 12.2896 50.9688 12.3699 50.6878 12.4904C50.4268 12.6109 50.1959 12.7815 49.9951 13.0024C49.8144 13.2031 49.6939 13.4541 49.6337 13.7552H45.267C45.3674 12.7916 45.6284 11.9885 46.05 11.346C46.4917 10.6835 47.0438 10.1514 47.7063 9.74989C48.3689 9.34835 49.1017 9.06728 49.9048 8.90666C50.7279 8.72597 51.5711 8.63562 52.4344 8.63562C52.9163 8.63562 53.4082 8.66574 53.9101 8.72597C54.412 8.76612 54.9039 8.86651 55.3858 9.02712C55.8676 9.16766 56.3193 9.36843 56.741 9.62943C57.1826 9.87035 57.5942 10.1916 57.9757 10.5931C58.6583 11.3761 59.0799 12.2796 59.2405 13.3035C59.4212 14.3074 59.5015 15.2911 59.4815 16.2548V24.8377H55.5966L55.5062 22.8802ZM55.3556 17.8208H52.2538C51.9526 17.8208 51.6113 17.8509 51.2298 17.9112C50.8484 17.9714 50.5171 18.0818 50.236 18.2424C49.9549 18.4031 49.714 18.6139 49.5133 18.8749C49.3326 19.1359 49.2422 19.4571 49.2422 19.8386C49.2422 20.1598 49.3024 20.4409 49.4229 20.6818C49.5634 20.9227 49.7341 21.1235 49.9349 21.2841C50.1557 21.4447 50.4167 21.5752 50.7179 21.6756C51.019 21.7559 51.3202 21.7961 51.6213 21.7961C52.2036 21.8161 52.7456 21.7158 53.2476 21.4949C53.7696 21.2741 54.2213 20.9629 54.6028 20.5613C54.8437 20.2401 55.0244 19.8787 55.1448 19.4772C55.2854 19.0556 55.3556 18.5034 55.3556 17.8208Z" fill="#877E7E"/>
<path fill-rule="evenodd" clip-rule="evenodd" d="M33.4343 18.128C33.2641 21.1011 32.3029 23.9814 30.6419 26.4671C28.8035 29.2185 26.1906 31.3629 23.1334 32.6292C20.0762 33.8955 16.7122 34.2269 13.4668 33.5813C10.2213 32.9357 7.24019 31.3423 4.90034 29.0024C2.5605 26.6626 0.967046 23.6814 0.321485 20.436C-0.324076 17.1905 0.00724919 13.8265 1.27356 10.7694C2.53988 7.71222 4.68431 5.09923 7.43567 3.26082C9.92139 1.59992 12.8016 0.638645 15.7748 0.468506V8.86137C14.4586 9.01278 13.1924 9.47529 12.0832 10.2164C10.7076 11.1356 9.63534 12.4421 9.00218 13.9707C8.36903 15.4993 8.20336 17.1813 8.52614 18.804C8.84892 20.4267 9.64565 21.9173 10.8156 23.0872C11.9855 24.2571 13.4761 25.0539 15.0988 25.3766C16.7215 25.6994 18.4035 25.5338 19.9321 24.9006C21.4607 24.2674 22.7672 23.1952 23.6864 21.8195C24.4275 20.7104 24.89 19.4441 25.0414 18.128H33.4343Z" fill="#877E7E"/>
<path fill-rule="evenodd" clip-rule="evenodd" d="M25.0917 0.441162H18.248V8.80654H25.0917V15.6506L33.4571 15.6506L33.4571 8.80654H33.4579V0.441162H31.9268H25.0917Z" fill="#877E7E"/>
</svg>
