<svg width="186" height="37" viewBox="0 0 186 37" fill="none" xmlns="http://www.w3.org/2000/svg">
<path d="M179.554 11.9663H183.941L178.156 27.8606C176.503 32.4381 173.801 34.4408 169.763 34.2183V30.4036C172.02 30.4354 173.165 29.4818 173.928 27.3519L167.411 11.9663H171.893L176.026 22.6472L179.554 11.9663Z" fill="#877E7E"/>
<path d="M160.023 11.5212C163.393 11.5212 166.031 13.8736 166.031 18.1015V27.8605H161.931V18.6101C161.931 16.4485 160.627 15.3359 158.783 15.3359C156.781 15.3359 155.287 16.512 155.287 19.2776V27.8605H151.186V11.9663H155.287V13.7464C156.24 12.316 157.893 11.5212 160.023 11.5212Z" fill="#877E7E"/>
<path d="M143.367 11.9663H147.468V27.8605H143.367V25.985C142.223 27.4155 140.506 28.3056 138.186 28.3056C133.958 28.3056 130.461 24.6499 130.461 19.9134C130.461 15.1769 133.958 11.5212 138.186 11.5212C140.506 11.5212 142.223 12.4113 143.367 13.8418V11.9663ZM138.948 24.3956C141.492 24.3956 143.367 22.5836 143.367 19.9134C143.367 17.2432 141.492 15.4312 138.948 15.4312C136.437 15.4312 134.562 17.2432 134.562 19.9134C134.562 22.5836 136.437 24.3956 138.948 24.3956Z" fill="#877E7E"/>
<path d="M120.639 11.5212C124.898 11.5212 128.395 15.1769 128.395 19.9134C128.395 24.6499 124.898 28.3056 120.639 28.3056C118.318 28.3056 116.633 27.4473 115.489 25.985V34.2182H111.388V11.9663H115.489V13.8418C116.633 12.3795 118.318 11.5212 120.639 11.5212ZM119.876 24.3956C122.419 24.3956 124.294 22.5836 124.294 19.9134C124.294 17.2432 122.419 15.4312 119.876 15.4312C117.364 15.4312 115.489 17.2432 115.489 19.9134C115.489 22.5836 117.364 24.3956 119.876 24.3956Z" fill="#877E7E"/>
<path d="M101.897 11.5212C105.521 11.5212 107.905 14.0961 107.905 18.0697V27.8605H103.805V18.3558C103.805 16.4802 102.851 15.3359 101.134 15.3359C99.3225 15.3359 98.1781 16.5438 98.1781 18.928V27.8605H94.0774V18.3558C94.0774 16.4802 93.1238 15.3359 91.4072 15.3359C89.6588 15.3359 88.4191 16.5438 88.4191 18.928V27.8605H84.3184V11.9663H88.4191V13.6511C89.3092 12.316 90.8032 11.5212 92.8377 11.5212C94.8086 11.5212 96.2708 12.3477 97.1609 13.81C98.1464 12.3795 99.7358 11.5212 101.897 11.5212Z" fill="#877E7E"/>
<path d="M73.0098 28.3056C68.3369 28.3056 64.6177 24.6499 64.6177 19.9134C64.6177 15.1769 68.3369 11.5212 73.0098 11.5212C77.6828 11.5212 81.4338 15.1769 81.4338 19.9134C81.4338 24.6499 77.6828 28.3056 73.0098 28.3056ZM73.0098 24.3002C75.4576 24.3002 77.3331 22.4883 77.3331 19.9134C77.3331 17.3385 75.4576 15.5266 73.0098 15.5266C70.5939 15.5266 68.7184 17.3385 68.7184 19.9134C68.7184 22.4883 70.5939 24.3002 73.0098 24.3002Z" fill="#877E7E"/>
<path d="M56.3394 28.3056C51.5076 28.3056 47.9473 24.6499 47.9473 19.9134C47.9473 15.1769 51.5076 11.5212 56.3394 11.5212C59.4547 11.5212 62.1567 13.1742 63.4601 15.622L59.9315 17.6882C59.2958 16.3849 57.9289 15.5584 56.3076 15.5584C53.8599 15.5584 52.048 17.3703 52.048 19.9134C52.048 22.4247 53.8599 24.2366 56.3076 24.2366C57.9606 24.2366 59.3276 23.4419 59.9633 22.1386L63.5236 24.1731C62.1567 26.6526 59.4547 28.3056 56.3394 28.3056Z" fill="#877E7E"/>
<path fill-rule="evenodd" clip-rule="evenodd" d="M12.9516 3.11694C11.58 3.11694 10.4682 4.2288 10.4682 5.60035V13.357H2.56837C1.19682 13.357 0.0849609 14.4689 0.0849609 15.8404V34.1507C0.0849609 35.5222 1.19682 36.6341 2.56837 36.6341H20.6611C22.0326 36.6341 23.1445 35.5222 23.1445 34.1507V26.394H31.0443C32.4159 26.394 33.5277 25.2822 33.5277 23.9106V5.60036C33.5277 4.22881 32.4159 3.11694 31.0443 3.11694H12.9516ZM23.1445 26.394V15.8404C23.1445 14.4689 22.0326 13.357 20.6611 13.357H10.4682V23.9106C10.4682 25.2822 11.58 26.394 12.9516 26.394H23.1445Z" fill="#877E7E"/>
</svg>
