<svg width="164" height="39" viewBox="0 0 164 39" fill="none" xmlns="http://www.w3.org/2000/svg">
<path d="M153.447 12.0784C157.855 12.0784 161.473 15.8609 161.473 20.7617C161.473 25.6626 157.855 29.4451 153.447 29.4451C151.046 29.4451 149.303 28.557 148.119 27.044V35.563H143.876V12.5389H148.119V14.4795C149.303 12.9664 151.046 12.0784 153.447 12.0784ZM152.658 25.3995C155.289 25.3995 157.23 23.5246 157.23 20.7617C157.23 17.9989 155.289 16.124 152.658 16.124C150.06 16.124 148.119 17.9989 148.119 20.7617C148.119 23.5246 150.06 25.3995 152.658 25.3995Z" fill="#877E7E"/>
<path d="M135.747 12.5389H139.99V28.9847H135.747V27.1428C134.76 28.6229 133.05 29.4452 130.846 29.4452C127.359 29.4452 124.629 27.0112 124.629 22.6367V12.5389H128.872V22.1104C128.872 24.347 130.221 25.4982 132.129 25.4982C134.201 25.4982 135.747 24.2812 135.747 21.4197V12.5389Z" fill="#877E7E"/>
<path d="M121.644 16.6175H117.927V23.4589C117.927 25.2351 119.21 25.2679 121.644 25.1364V28.9847C115.69 29.6425 113.684 27.8993 113.684 23.4589V16.6175H110.822V12.5389H113.684V9.21685L117.927 7.93408V12.5389H121.644V16.6175Z" fill="#877E7E"/>
<path d="M104.306 15.3676C105.161 13.1309 107.233 12.21 109.306 12.21V16.9463C107.102 16.6832 104.306 17.67 104.306 21.1236V28.9847H100.063V12.5389H104.306V15.3676Z" fill="#877E7E"/>
<path d="M91.9726 12.5389H96.2156V28.9846H91.9726V27.044C90.7885 28.5242 89.0124 29.4451 86.6113 29.4451C82.2367 29.4451 78.6187 25.6626 78.6187 20.7617C78.6187 15.8609 82.2367 12.0784 86.6113 12.0784C89.0124 12.0784 90.7885 12.9993 91.9726 14.4795V12.5389ZM87.4007 25.3995C90.032 25.3995 91.9726 23.5246 91.9726 20.7617C91.9726 17.9989 90.032 16.124 87.4007 16.124C84.8023 16.124 82.8617 17.9989 82.8617 20.7617C82.8617 23.5246 84.8023 25.3995 87.4007 25.3995Z" fill="#877E7E"/>
<path d="M76.9956 16.6175H73.2789V23.4589C73.2789 25.2351 74.5617 25.2679 76.9956 25.1364V28.9847C71.0423 29.6425 69.0359 27.8993 69.0359 23.4589V16.6175H66.1743V12.5389H69.0359V9.21685L73.2789 7.93408V12.5389H76.9956V16.6175Z" fill="#877E7E"/>
<path d="M56.8561 17.2095C56.8561 19.6434 65.3422 18.1304 65.3422 24.1825C65.3422 27.7348 62.2504 29.4451 58.731 29.4451C55.4418 29.4451 53.0078 28.0637 51.8237 25.531L55.5076 23.4589C55.9681 24.8074 57.0864 25.5968 58.731 25.5968C60.0795 25.5968 61.0005 25.1363 61.0005 24.1825C61.0005 21.7814 52.5145 23.097 52.5145 17.3081C52.5145 13.9532 55.376 12.0784 58.7639 12.0784C61.4281 12.0784 63.7305 13.2954 65.0133 15.5649L61.3952 17.5384C60.9018 16.4858 59.9808 15.8609 58.7639 15.8609C57.7113 15.8609 56.8561 16.3214 56.8561 17.2095Z" fill="#877E7E"/>
<path d="M12.5991 23.1562L5.1683 30.6632C4.13582 31.7063 2.44831 31.6989 1.42504 30.6468C0.423924 29.6175 0.436888 27.9744 1.45412 26.961L11.4168 17.0358C12.4956 15.961 14.2398 15.9593 15.3208 17.0318L20.0342 21.7087L27.942 13.6976H22.5668C21.1681 13.6976 20.0342 12.5637 20.0342 11.165C20.0342 9.76631 21.1681 8.63245 22.5668 8.63245H34.0116C35.5406 8.63245 36.7801 9.87196 36.7801 11.401V22.7424C36.7801 24.1982 35.6 25.3783 34.1442 25.3783C32.6884 25.3783 31.5082 24.1982 31.5082 22.7424V17.3672L22.3374 26.4967C21.0573 27.7711 18.9935 27.7891 17.6912 26.5374L14.1536 23.1369C13.7172 22.7174 13.0249 22.726 12.5991 23.1562Z" fill="#877E7E"/>
</svg>
