<svg width="163" height="39" viewBox="0 0 163 39" fill="none" xmlns="http://www.w3.org/2000/svg">
<path d="M152.715 29.6232C151.039 29.6232 149.57 29.2675 148.308 28.556C147.046 27.8216 146.07 26.8003 145.382 25.4921C144.693 24.1839 144.349 22.6462 144.349 20.879C144.349 19.1348 144.693 17.6086 145.382 16.3004C146.07 14.9693 147.046 13.9365 148.308 13.2021C149.57 12.4447 151.039 12.066 152.715 12.066C154.413 12.066 155.882 12.4447 157.121 13.2021C158.383 13.9595 159.359 15.0037 160.047 16.3348C160.736 17.643 161.08 19.1463 161.08 20.8446C161.08 21.0971 161.069 21.3495 161.046 21.602C161.046 21.8315 161.023 22.0266 160.977 22.1872H148.033V18.8135H157.569L156.88 20.4315C156.88 19.0086 156.536 17.8496 155.847 16.9545C155.182 16.0594 154.138 15.6119 152.715 15.6119C151.475 15.6119 150.477 16.0021 149.72 16.7824C148.962 17.5397 148.583 18.561 148.583 19.8463V21.6708C148.583 23.0249 148.962 24.0921 149.72 24.8724C150.5 25.6298 151.556 26.0085 152.887 26.0085C154.057 26.0085 154.975 25.7675 155.641 25.2855C156.306 24.8036 156.88 24.2069 157.362 23.4954L160.495 25.2855C159.737 26.6855 158.705 27.7642 157.396 28.5216C156.111 29.256 154.551 29.6232 152.715 29.6232Z" fill="#877E7E"/>
<path d="M137.19 12.4447L138.326 17.0922V29.2789H133.816V12.4447H137.19ZM137.397 19.3987L136.57 19.02V15.5775L136.88 15.1988C137.133 14.7857 137.511 14.3381 138.016 13.8562C138.544 13.3742 139.141 12.9611 139.806 12.6169C140.495 12.2496 141.206 12.066 141.941 12.066C142.308 12.066 142.641 12.089 142.939 12.1349C143.238 12.1808 143.467 12.2611 143.628 12.3759V16.4725H142.526C141.034 16.4725 139.887 16.7135 139.084 17.1955C138.28 17.6545 137.718 18.3889 137.397 19.3987Z" fill="#877E7E"/>
<path d="M120.365 29.6919C119.102 29.6919 118.092 29.4968 117.335 29.1067C116.578 28.7165 115.993 28.2001 115.579 27.5575C115.189 26.8919 114.925 26.1346 114.788 25.2854C114.65 24.4362 114.581 23.5526 114.581 22.6346V12.4446H119.091V22.669C119.091 23.7018 119.309 24.3903 119.745 24.7346C120.204 25.0788 120.743 25.251 121.363 25.251C121.937 25.251 122.51 25.1477 123.084 24.9411C123.658 24.7346 124.197 24.4362 124.702 24.0461C125.23 23.633 125.666 23.1625 126.01 22.6346L126.561 25.01H125.46V12.4446H129.969V29.2788H126.596L125.666 26.0772L127.112 26.1116C126.538 26.7772 125.884 27.3854 125.15 27.9362C124.438 28.487 123.669 28.9231 122.843 29.2444C122.04 29.5427 121.214 29.6919 120.365 29.6919Z" fill="#877E7E"/>
<path d="M108.634 29.5887C106.912 29.5887 105.547 29.1412 104.537 28.2461C103.55 27.3281 103.057 25.8707 103.057 23.874V12.6512L102.988 12.4447L103.917 8.48572H107.567V23.1511C107.567 23.8855 107.739 24.4249 108.083 24.7691C108.45 25.0904 108.909 25.2511 109.46 25.2511C109.827 25.2511 110.16 25.2281 110.458 25.1822C110.757 25.1134 111.021 25.0445 111.25 24.9757V29.1756C110.883 29.3133 110.493 29.4166 110.08 29.4854C109.667 29.5543 109.185 29.5887 108.634 29.5887ZM100.44 16.6102V12.4447H111.25V16.6102H100.44Z" fill="#877E7E"/>
<path d="M92.7359 12.066C93.8835 12.066 94.8015 12.2611 95.49 12.6513C96.2015 13.0414 96.7293 13.5693 97.0736 14.2349C97.4408 14.9004 97.6818 15.6578 97.7965 16.507C97.9113 17.3332 97.9686 18.1938 97.9686 19.0889V29.2789H93.4589V19.0545C93.4589 18.0217 93.2523 17.3332 92.8392 16.9889C92.449 16.6447 91.9441 16.4725 91.3245 16.4725C90.7507 16.4725 90.1655 16.5873 89.5688 16.8168C88.972 17.0234 88.4098 17.3332 87.8819 17.7463C87.377 18.1365 86.9409 18.584 86.5737 19.0889L85.9885 16.7479H87.1245V29.2789H82.6147V12.4447H85.9885L86.918 15.6807L85.4721 15.6119C86.0688 14.9234 86.7458 14.3152 87.5032 13.7873C88.2835 13.2595 89.1097 12.8464 89.9819 12.548C90.854 12.2267 91.772 12.066 92.7359 12.066Z" fill="#877E7E"/>
<path d="M71.4914 29.6232C69.8161 29.6232 68.3472 29.2675 67.0849 28.556C65.8227 27.8216 64.8473 26.8003 64.1587 25.4921C63.4702 24.1839 63.126 22.6462 63.126 20.879C63.126 19.1348 63.4702 17.6086 64.1587 16.3004C64.8473 14.9693 65.8227 13.9365 67.0849 13.2021C68.3472 12.4447 69.8161 12.066 71.4914 12.066C73.1898 12.066 74.6586 12.4447 75.8979 13.2021C77.1602 13.9595 78.1356 15.0037 78.8241 16.3348C79.5126 17.643 79.8569 19.1463 79.8569 20.8446C79.8569 21.0971 79.8454 21.3495 79.8225 21.602C79.8225 21.8315 79.7995 22.0266 79.7536 22.1872H66.8095V18.8135H76.3455L75.657 20.4315C75.657 19.0086 75.3127 17.8496 74.6242 16.9545C73.9586 16.0594 72.9144 15.6119 71.4914 15.6119C70.2521 15.6119 69.2538 16.0021 68.4964 16.7824C67.739 17.5397 67.3603 18.561 67.3603 19.8463V21.6708C67.3603 23.0249 67.739 24.0921 68.4964 24.8724C69.2767 25.6298 70.3324 26.0085 71.6636 26.0085C72.834 26.0085 73.7521 25.7675 74.4176 25.2855C75.0832 24.8036 75.657 24.2069 76.1389 23.4954L79.2717 25.2855C78.5143 26.6855 77.4815 27.7642 76.1733 28.5216C74.8881 29.256 73.3275 29.6232 71.4914 29.6232Z" fill="#877E7E"/>
<path d="M62.4358 12.4446L56.2736 29.2788H51.9359L45.4639 12.4446H50.2146L54.6211 25.3198H53.5539L57.7883 12.4446H62.4358Z" fill="#877E7E"/>
<path fill-rule="evenodd" clip-rule="evenodd" d="M13.0673 2.26917C12.4807 2.26917 12.0051 2.74476 12.0051 3.33144V13.4231H12.0049C5.84483 13.4231 0.851074 18.4168 0.851074 24.5769C0.851074 30.737 5.84483 35.7308 12.0049 35.7308H22.0965C22.6832 35.7308 23.1588 35.2552 23.1588 34.6685V24.5769H23.1589C29.319 24.5769 34.3128 19.5831 34.3128 13.423C34.3128 7.26292 29.319 2.26917 23.1589 2.26917H13.0673ZM23.1588 24.5769V14.4853C23.1588 13.8987 22.6832 13.4231 22.0965 13.4231H12.0051V23.5146C12.0051 24.1013 12.4807 24.5769 13.0673 24.5769H23.1588Z" fill="#877E7E"/>
<path d="M12.9475 2.26917C12.4269 2.26917 12.0049 2.69117 12.0049 3.21174L12.0049 13.423H22.2162C22.7367 13.423 23.1587 13.845 23.1587 14.3656L23.1587 24.5769C29.3189 24.5769 34.3126 19.5831 34.3126 13.423C34.3126 7.26292 29.3189 2.26917 23.1587 2.26917H12.9475Z" fill="#877E7E"/>
</svg>
