<svg width="129" height="35" viewBox="0 0 129 35" fill="none" xmlns="http://www.w3.org/2000/svg">
<path d="M114.453 26.8477C113.248 26.1249 112.285 25.1612 111.562 23.9566C110.839 22.752 110.508 21.4269 110.508 19.9814C110.508 18.566 110.839 17.2409 111.562 16.0363C112.285 14.8317 113.248 13.868 114.453 13.1452C115.658 12.4224 116.983 12.061 118.428 12.061C119.844 12.061 121.169 12.4224 122.373 13.1452C123.578 13.868 124.542 14.8317 125.264 16.0363C125.987 17.2409 126.349 18.566 126.349 19.9814C126.349 21.4269 125.987 22.752 125.264 23.9566C124.542 25.1612 123.578 26.1249 122.373 26.8477C121.169 27.5705 119.844 27.9018 118.428 27.9018C116.983 27.9018 115.658 27.5705 114.453 26.8477ZM120.506 23.6254C121.139 23.264 121.651 22.752 122.042 22.0895C122.403 21.4571 122.614 20.7644 122.614 19.9814C122.614 19.2285 122.403 18.5359 122.042 17.8733C121.651 17.2409 121.139 16.7289 120.506 16.3374C119.844 15.976 119.151 15.7652 118.398 15.7652C117.615 15.7652 116.922 15.976 116.29 16.3374C115.627 16.7289 115.115 17.2409 114.754 17.8733C114.393 18.5359 114.212 19.2285 114.212 19.9814C114.212 20.7644 114.393 21.4571 114.754 22.0895C115.115 22.752 115.627 23.264 116.29 23.6254C116.922 23.9867 117.615 24.1674 118.398 24.1674C119.151 24.1674 119.844 23.9867 120.506 23.6254Z" fill="#877E7E"/>
<path d="M105.012 9.35065C104.59 8.98926 104.41 8.44718 104.41 7.78464C104.41 7.1221 104.59 6.58003 105.012 6.18853C105.403 5.82714 105.946 5.61633 106.668 5.61633C107.361 5.61633 107.903 5.82714 108.325 6.18853C108.716 6.58003 108.927 7.1221 108.927 7.78464C108.927 8.44718 108.716 8.95915 108.295 9.35065C107.873 9.74215 107.331 9.92284 106.668 9.92284C105.946 9.92284 105.403 9.74215 105.012 9.35065ZM104.771 27.4801V12.4224H108.505V27.4801H104.771Z" fill="#877E7E"/>
<path d="M97.4658 6.39941H101.2V27.4802H97.4658V26.0347C96.7732 26.637 96.0203 27.1188 95.1771 27.42C94.3338 27.7513 93.4605 27.9018 92.557 27.9018C91.0211 27.9018 89.6961 27.5706 88.5517 26.8779C87.4073 26.2154 86.5038 25.2517 85.9015 24.0471C85.2992 22.8424 84.998 21.4872 84.998 19.9815C84.998 18.4757 85.2992 17.1205 85.9015 15.9159C86.5038 14.7113 87.4073 13.7777 88.5517 13.085C89.6961 12.3924 91.0211 12.031 92.557 12.031C93.4605 12.031 94.3037 12.2117 95.1469 12.543C95.9902 12.8742 96.7431 13.326 97.4658 13.8982V6.39941ZM95.2674 23.776C95.9299 23.4146 96.472 22.8726 96.8635 22.21C97.255 21.5475 97.4658 20.7946 97.4658 19.9514C97.4658 18.6865 97.0141 17.6626 96.1709 16.8495C95.3276 16.0665 94.2736 15.6449 93.0389 15.6449C91.774 15.6449 90.72 16.0665 89.9069 16.8796C89.0937 17.6927 88.7022 18.7166 88.7022 19.9815C88.7022 21.2463 89.0937 22.3004 89.9069 23.1135C90.72 23.9266 91.774 24.3181 93.0389 24.3181C93.852 24.3181 94.6049 24.1374 95.2674 23.776Z" fill="#877E7E"/>
<path d="M78.9791 12.4225H82.7134V27.4802H78.9791V26.2154C78.437 26.7273 77.8347 27.1188 77.1722 27.42C76.5096 27.7211 75.7869 27.8717 75.0641 27.8717C74.1606 27.8717 73.2572 27.691 72.3537 27.3296C71.4503 26.9682 70.6672 26.2756 70.0047 25.3119C69.3422 24.3482 69.041 23.0532 69.041 21.427V12.4225H72.7753V21.427C72.7753 22.5714 73.0765 23.3845 73.7089 23.8663C74.3413 24.3482 75.0942 24.5891 75.9375 24.5891C76.7807 24.5891 77.4733 24.3181 78.0756 23.7158C78.678 23.1135 78.9791 22.1799 78.9791 20.8548V12.4225Z" fill="#877E7E"/>
<path d="M64.0455 23.7459C64.3467 24.017 64.8587 24.1374 65.5814 24.1374C66.003 24.1374 66.4548 24.1073 66.9667 24.0471V27.4803C66.003 27.6007 65.22 27.6308 64.6177 27.6308C62.9915 27.6308 61.7869 27.2694 61.0039 26.5467C60.2209 25.8239 59.8294 24.4988 59.8294 22.5714V15.7653H56.9985V12.4225H59.8294V8.71834L63.5637 7.45349V12.4225H66.9065V15.7653H63.5637V22.3305C63.5637 23.0232 63.7143 23.505 64.0455 23.7459Z" fill="#877E7E"/>
<path d="M48.2775 17.6022C48.7593 17.813 49.5122 18.0239 50.5361 18.2347C51.6805 18.4756 52.6743 18.7466 53.4573 19.0478C54.2403 19.3489 54.9029 19.8308 55.4751 20.4933C56.0473 21.1559 56.3484 22.0292 56.3484 23.1134C56.3484 24.1072 56.0473 24.9504 55.445 25.6732C54.8426 26.3959 54.0596 26.9681 53.096 27.3295C52.1021 27.6909 51.018 27.8716 49.8736 27.8716C48.2775 27.8716 46.9223 27.5704 45.7779 26.9681C44.6335 26.3658 43.8204 25.5226 43.2783 24.3782L46.3501 22.7821C46.8922 24.1674 48.0667 24.8601 49.8736 24.8601C50.6566 24.8601 51.3191 24.7095 51.8913 24.4083C52.4334 24.1072 52.7346 23.6856 52.7346 23.1134C52.7346 22.6315 52.4635 22.3002 51.9516 22.0593C51.4396 21.8184 50.6265 21.5775 49.4821 21.2763C48.2775 21.0053 47.3138 20.7342 46.591 20.4331C45.8381 20.1621 45.2057 19.7404 44.6636 19.1381C44.1216 18.5358 43.8505 17.7528 43.8505 16.759C43.8505 15.7953 44.1216 14.9822 44.6636 14.2594C45.2057 13.5367 45.9285 12.9946 46.8621 12.6031C47.7655 12.2417 48.7894 12.0309 49.9037 12.0309C51.1987 12.0309 52.3732 12.3019 53.3971 12.844C54.421 13.3861 55.2341 14.1691 55.8063 15.1629L52.7647 16.6988C52.2226 15.5845 51.289 15.0123 49.9037 15.0123C49.1809 15.0123 48.6389 15.1629 48.2173 15.464C47.7956 15.7652 47.5848 16.1567 47.5848 16.6385C47.5848 17.0602 47.7956 17.3914 48.2775 17.6022Z" fill="#877E7E"/>
<mask id="mask0_2846_9311" style="mask-type:alpha" maskUnits="userSpaceOnUse" x="0" y="0" width="35" height="34">
<circle cx="17.3665" cy="17.0391" r="16.7308" fill="#D9D9D9"/>
</mask>
<g mask="url(#mask0_2846_9311)">
<rect x="-3.81885" y="21.3467" width="17.4735" height="17.4735" rx="1.83886" transform="rotate(-15 -3.81885 21.3467)" fill="#877E7E"/>
<rect x="17.1519" y="21.3467" width="17.4735" height="17.4735" rx="1.83886" transform="rotate(-15 17.1519 21.3467)" fill="#877E7E"/>
<rect x="17.1519" y="0.375854" width="17.4735" height="17.4735" rx="1.83886" transform="rotate(-15 17.1519 0.375854)" fill="#877E7E"/>
<rect x="-3.81885" y="0.375854" width="17.4735" height="17.4735" rx="1.83886" transform="rotate(-15 -3.81885 0.375854)" fill="#877E7E"/>
</g>
</svg>
