<svg width="165" height="37" viewBox="0 0 165 37" fill="none" xmlns="http://www.w3.org/2000/svg">
<path d="M155.958 11.155C160.325 11.155 163.185 14.1967 163.185 18.2623C163.185 18.9549 163.065 19.5873 162.945 20.1595H152.163C152.404 22.5688 154.422 23.8336 156.681 23.8336C158.457 23.8336 159.782 23.0807 160.716 22.117L162.884 24.707C160.987 26.5139 159.03 27.2367 156.5 27.2367C151.44 27.2367 148.098 23.7132 148.098 19.226C148.098 14.7388 151.38 11.155 155.958 11.155ZM155.928 14.4376C154 14.4376 152.495 15.582 152.163 17.5094H159.361V17.4793C159.21 15.582 157.765 14.4376 155.928 14.4376Z" fill="#877E7E"/>
<path d="M136.617 11.5164H138.906V7.33032H142.701V11.5164H146.344V14.6484H142.701V21.4846C142.701 22.9602 143.423 23.7131 144.839 23.7131C145.29 23.7131 146.043 23.6529 146.736 23.2012V26.6343C146.043 26.9957 145.11 27.2366 143.815 27.2366C140.683 27.2366 138.785 25.3996 138.785 22.0568V14.6484H136.617V11.5164Z" fill="#877E7E"/>
<path d="M119.328 11.5164H123.243V20.3703C123.243 22.5687 124.538 23.7432 126.345 23.7432C128.784 23.7432 129.868 21.5147 129.868 19.4367V11.5164H133.783V26.8752H130.019V24.7671C129.055 26.3633 127.549 27.2366 125.29 27.2366C121.677 27.2366 119.328 24.8876 119.328 20.822V11.5164Z" fill="#877E7E"/>
<path d="M106.826 11.5164H109.114V7.33032H112.909V11.5164H116.553V14.6484H112.909V21.4846C112.909 22.9602 113.632 23.7131 115.047 23.7131C115.499 23.7131 116.252 23.6529 116.944 23.2012V26.6343C116.252 26.9957 115.318 27.2366 114.023 27.2366C110.891 27.2366 108.994 25.3996 108.994 22.0568V14.6484H106.826V11.5164Z" fill="#877E7E"/>
<path d="M100.07 26.8752V11.5163H103.985V26.8752H100.07ZM101.997 4.86084C103.232 4.86084 104.256 5.7643 104.256 7.05927C104.256 8.35423 103.232 9.28781 101.997 9.28781C100.702 9.28781 99.7388 8.35423 99.7388 7.05927C99.7388 5.7643 100.702 4.86084 101.997 4.86084Z" fill="#877E7E"/>
<path d="M87.2095 11.5164H89.4982V7.33032H93.2928V11.5164H96.9368V14.6484H93.2928V21.4846C93.2928 22.9602 94.0156 23.7131 95.431 23.7131C95.8827 23.7131 96.6356 23.6529 97.3283 23.2012V26.6343C96.6356 26.9957 95.702 27.2366 94.4071 27.2366C91.2751 27.2366 89.3778 25.3996 89.3778 22.0568V14.6484H87.2095V11.5164Z" fill="#877E7E"/>
<path d="M79.5689 27.2367C76.7983 27.2367 74.4191 25.9417 73.2446 23.7734L75.8948 21.8159C76.738 23.141 77.9125 24.0745 79.5689 24.0745C81.0144 24.0745 81.8878 23.5626 81.8878 22.7495C81.8878 21.7858 81.0746 21.3943 78.5751 20.551C75.4431 19.497 73.7566 18.2623 73.7566 15.7326C73.7566 13.0824 76.3465 11.155 79.6592 11.155C82.1889 11.155 84.2669 12.3596 85.2607 14.1967L82.6406 16.094C82.0082 15.0399 81.0445 14.287 79.599 14.287C78.3643 14.287 77.4307 14.8592 77.4307 15.7025C77.4307 16.5156 78.2438 16.9372 80.6229 17.7804C83.5441 18.8345 85.5618 19.8584 85.5618 22.6591C85.5618 25.249 83.1225 27.2367 79.5689 27.2367Z" fill="#877E7E"/>
<path d="M55.9849 11.5164H59.7493V13.6245C60.713 12.0284 62.2188 11.155 64.4774 11.155C68.0913 11.155 70.4403 13.504 70.4403 17.5696V26.8753H66.5253V18.0213C66.5253 15.8229 65.2303 14.6484 63.4234 14.6484C60.984 14.6484 59.8999 16.8468 59.8999 18.9549V26.8753H55.9849V11.5164Z" fill="#877E7E"/>
<path d="M47.6032 26.8752V11.5163H51.5182V26.8752H47.6032ZM49.5306 4.86084C50.7654 4.86084 51.7893 5.7643 51.7893 7.05927C51.7893 8.35423 50.7654 9.28781 49.5306 9.28781C48.2357 9.28781 47.272 8.35423 47.272 7.05927C47.272 5.7643 48.2357 4.86084 49.5306 4.86084Z" fill="#877E7E"/>
<path fill-rule="evenodd" clip-rule="evenodd" d="M10.3903 2.06971C4.80093 4.77847 0.946777 10.5063 0.946777 17.1344C0.946777 26.3745 8.43741 33.8652 17.6776 33.8652C24.3056 33.8652 30.0334 30.011 32.7422 24.4216H17.6929L17.6778 24.4216C13.6781 24.4216 10.431 21.1993 10.3909 17.209H10.3903V2.06971ZM34.1772 19.9219C34.3292 19.0153 34.4084 18.0841 34.4084 17.1344C34.4084 7.8942 26.9177 0.403564 17.6776 0.403564C16.7279 0.403564 15.7966 0.482696 14.8901 0.634727V10.3994C15.7488 10.0435 16.6904 9.84712 17.6778 9.84712C21.7024 9.84712 24.9651 13.1097 24.9651 17.1344C24.9651 18.1217 24.7687 19.0632 24.4129 19.9219H34.1772Z" fill="#877E7E"/>
</svg>
